<svg width="685" height="1618" viewBox="0 0 685 1618" fill="none" xmlns="http://www.w3.org/2000/svg">
<path opacity="0.8" d="M31 1.28183C225.333 -4.05151 571.7 64.2818 402.5 380.282C191 775.282 -57 535.282 31 834.782C101.4 1074.38 308 1182.28 402.5 1206.28C496.167 1243.95 627.3 1300.78 402.5 1226.78C177.7 1152.78 78.5 1263.28 57 1327.78C35.3333 1413.62 83.9 1567.78 451.5 1497.78C819.1 1427.78 604.667 1547.95 451.5 1616.78" stroke="white"/>
<ellipse cx="305.5" cy="30.2819" rx="33.5" ry="27" fill="#C4C4C4"/>
<circle cx="487" cy="238.282" r="25" fill="#C4C4C4"/>
<ellipse cx="371.5" cy="435.282" rx="33.5" ry="27" fill="#C4C4C4"/>
<ellipse cx="78.5" cy="884.282" rx="33.5" ry="27" fill="#C4C4C4"/>
<ellipse cx="189.5" cy="1053.28" rx="33.5" ry="27" fill="#C4C4C4"/>
<ellipse cx="545.5" cy="1263.28" rx="33.5" ry="27" fill="#C4C4C4"/>
<ellipse cx="651.5" cy="1485.28" rx="33.5" ry="27" fill="#C4C4C4"/>
<ellipse cx="33.5" cy="705.282" rx="33.5" ry="27" fill="#C4C4C4"/>
</svg>
